<?xml version="1.0" encoding="UTF-8"?> <svg xmlns:sketch="http://www.bohemiancoding.com/sketch/ns" xmlns="http://www.w3.org/2000/svg" xmlns:xlink="http://www.w3.org/1999/xlink" version="1.1" id="Layer_1" x="0px" y="0px" viewBox="0 0 401.3 207.1" style="enable-background:new 0 0 401.3 207.1;" xml:space="preserve"> <style type="text/css"> .st0{fill:#7CB342;} .st1{fill:#1A1918;} </style> <path id="Fill-2" sketch:type="MSShapeGroup" class="st0" d="M335.8,142c-21.5,0-38.9-17.4-38.9-38.9c0-21.5,17.4-38.9,38.9-38.9 c21.5,0,38.9,17.4,38.9,38.9C374.7,124.5,357.3,142,335.8,142 M335.8,50.4c-29.1,0-52.7,23.6-52.7,52.7s23.6,52.7,52.7,52.7 s52.7-23.6,52.7-52.7S364.9,50.4,335.8,50.4"></path> <path id="Fill-3" sketch:type="MSShapeGroup" class="st0" d="M335.8,139.5c-10.1,0-19.2-4.1-25.8-10.7c-6.6-6.6-10.7-15.7-10.7-25.8 c0-10.1,4.1-19.2,10.7-25.8c6.6-6.6,15.7-10.7,25.8-10.7c10.1,0,19.2,4.1,25.8,10.7c6.6,6.6,10.7,15.7,10.7,25.8 c0,10.1-4.1,19.2-10.7,25.8C354.9,135.4,345.8,139.5,335.8,139.5v5c22.9,0,41.4-18.5,41.4-41.4c0-22.9-18.5-41.4-41.4-41.4 c-22.9,0-41.4,18.5-41.4,41.4c0,22.9,18.5,41.4,41.4,41.4V139.5 M335.8,47.9c-30.5,0-55.2,24.7-55.2,55.2 c0,30.5,24.7,55.2,55.2,55.2c30.5,0,55.2-24.7,55.2-55.2C391,72.6,366.2,47.9,335.8,47.9v5c13.9,0,26.4,5.6,35.5,14.7 c9.1,9.1,14.7,21.6,14.7,35.5c0,13.9-5.6,26.4-14.7,35.5c-9.1,9.1-21.6,14.7-35.5,14.7c-13.9,0-26.4-5.6-35.5-14.7 c-9.1-9.1-14.7-21.6-14.7-35.5c0-13.9,5.6-26.4,14.7-35.5c9.1-9.1,21.6-14.7,35.5-14.7V47.9"></path> <path id="Fill-7" sketch:type="MSShapeGroup" class="st0" d="M335.8,79.8c12.8,0,23.3,10.4,23.3,23.3c0,12.8-10.4,23.3-23.3,23.3 V79.8"></path> <path id="Fill-16" sketch:type="MSShapeGroup" class="st0" d="M255.8,61.1c2.8,1.2,5.3,2.7,7.5,4.5c4.9,4,8,9.3,9.4,15.8 c9-26.2,33.8-45.1,63.1-45.1V12.7C301,12.7,270.9,32.4,255.8,61.1 M269.2,107.2c-1.6,2.6-3.5,4.9-5.9,6.9c-4.2,3.5-9.5,5.9-16,7.2 c8.5,41.1,44.8,72,88.5,72v-23.6C300.3,169.8,271.4,142.1,269.2,107.2"></path> <path id="Fill-17" sketch:type="MSShapeGroup" class="st1" d="M13.7,59.3h77.8v14.5L41.9,134H93v18H12.2v-14.5l49.7-60.2H13.7V59.3"></path> <path id="Fill-18" sketch:type="MSShapeGroup" class="st1" d="M101.7,59.3h77.8v14.5L129.8,134h51.1v18h-80.7v-14.5l49.7-60.2h-48.2 V59.3"></path> <path id="Fill-19" sketch:type="MSShapeGroup" class="st1" d="M216.6,76.4v25.8h13.2c4.6,0,8.2-1.1,10.8-3.4 c2.5-2.2,3.8-5.4,3.8-9.6c0-4.1-1.3-7.3-3.8-9.5c-2.5-2.2-6.1-3.3-10.8-3.3H216.6L216.6,76.4z M192.8,59.1h39.6 c11.8,0,20.8,2.6,27.1,7.8c6.3,5.2,9.5,12.7,9.5,22.4c0,9.7-3.2,17.2-9.5,22.4c-6.3,5.2-15.4,7.8-27.1,7.8h-15.8v32.2h-23.8V59.1 L192.8,59.1z"></path> <path id="Fill-20" sketch:type="MSShapeGroup" class="st1" d="M242.3,151.1h-4.2l-7.2-11.6v11.6h-4v-16.9h5.2l6.2,9.7v-9.7h4V151.1"></path> <path id="Fill-21" sketch:type="MSShapeGroup" class="st1" d="M254.2,142.1c0-0.9-0.2-1.5-0.6-1.9c-0.4-0.4-1-0.6-1.9-0.6 c-0.8,0-1.4,0.2-1.9,0.6c-0.5,0.4-0.8,1.1-0.9,2H254.2L254.2,142.1z M258.3,144.5h-9.4c0.1,1,0.4,1.8,1.1,2.3 c0.7,0.5,1.7,0.8,3.1,0.8c0.9,0,1.7-0.2,2.5-0.5c0.8-0.3,1.5-0.6,1.9-1h0.5v3.3c-0.9,0.4-1.8,0.6-2.6,0.8c-0.8,0.2-1.7,0.2-2.7,0.2 c-2.6,0-4.5-0.6-5.9-1.7c-1.4-1.2-2-2.8-2-4.9c0-2.1,0.6-3.8,1.9-5c1.3-1.2,3.1-1.8,5.3-1.8c2.1,0,3.6,0.5,4.7,1.6 c1,1.1,1.6,2.6,1.6,4.5V144.5L258.3,144.5z"></path> <path id="Fill-22" sketch:type="MSShapeGroup" class="st1" d="M268.8,146.6v-6.3c-0.3-0.1-0.6-0.2-0.9-0.3c-0.3-0.1-0.6-0.1-0.9-0.1 c-1.1,0-1.9,0.3-2.4,1c-0.5,0.7-0.8,1.6-0.8,2.8c0,1.3,0.2,2.2,0.6,2.7c0.4,0.6,1.1,0.9,2.1,0.9c0.4,0,0.8-0.1,1.2-0.2 C268.1,147,268.5,146.8,268.8,146.6 M272.9,150.1h-4.1v-1.3c-0.7,0.6-1.4,1-2,1.3c-0.6,0.3-1.3,0.4-2.1,0.4c-1.6,0-2.8-0.6-3.7-1.8 c-0.9-1.2-1.4-2.8-1.4-4.8c0-1.1,0.2-2,0.5-2.9c0.3-0.8,0.7-1.6,1.3-2.2c0.5-0.6,1.1-1,1.9-1.3c0.7-0.3,1.5-0.5,2.2-0.5 c0.8,0,1.4,0.1,1.9,0.2c0.5,0.2,1,0.4,1.5,0.6v-5.4h4.1V150.1"></path> <path id="Fill-23" sketch:type="MSShapeGroup" class="st1" d="M284.6,142.1c0-0.9-0.2-1.5-0.6-1.9c-0.4-0.4-1-0.6-1.9-0.6 c-0.8,0-1.4,0.2-1.9,0.6c-0.5,0.4-0.8,1.1-0.9,2H284.6L284.6,142.1z M288.6,144.5h-9.4c0.1,1,0.4,1.8,1.1,2.3 c0.7,0.5,1.7,0.8,3.1,0.8c0.9,0,1.7-0.2,2.5-0.5c0.8-0.3,1.5-0.6,1.9-1h0.5v3.3c-0.9,0.4-1.8,0.6-2.6,0.8c-0.8,0.2-1.7,0.2-2.7,0.2 c-2.6,0-4.5-0.6-5.9-1.7c-1.4-1.2-2-2.8-2-4.9c0-2.1,0.6-3.8,1.9-5c1.3-1.2,3.1-1.8,5.3-1.8c2.1,0,3.6,0.5,4.7,1.6 c1,1.1,1.6,2.6,1.6,4.5V144.5L288.6,144.5z"></path> <path id="Fill-24" sketch:type="MSShapeGroup" class="st1" d="M300.1,141.2h-0.4c-0.2-0.1-0.5-0.1-0.8-0.1c-0.4,0-0.7,0-1,0 c-0.6,0-1.1,0-1.5,0.1c-0.4,0.1-0.9,0.2-1.4,0.4v8.5h-4.1v-12.8h4.1v1.9c0.9-0.8,1.7-1.3,2.3-1.5c0.7-0.3,1.3-0.4,1.8-0.4 c0.1,0,0.3,0,0.5,0c0.2,0,0.3,0,0.5,0V141.2"></path> <path id="Fill-25" sketch:type="MSShapeGroup" class="st1" d="M301.7,132.4h4.1v17.7h-4.1V132.4z"></path> <path id="Fill-26" sketch:type="MSShapeGroup" class="st1" d="M316.7,146.7v-2.6c-0.6,0-1.1,0.1-1.8,0.2c-0.6,0.1-1.1,0.2-1.5,0.3 c-0.4,0.1-0.7,0.3-0.9,0.6c-0.2,0.2-0.3,0.6-0.3,1c0,0.3,0,0.5,0.1,0.6c0,0.2,0.2,0.3,0.3,0.5c0.2,0.2,0.4,0.3,0.6,0.3 s0.6,0.1,1.1,0.1c0.4,0,0.8-0.1,1.2-0.2C316,147.2,316.4,147,316.7,146.7 M316.7,148.7c-0.2,0.2-0.5,0.4-0.8,0.6 c-0.3,0.2-0.6,0.4-0.9,0.6c-0.4,0.2-0.8,0.3-1.2,0.4c-0.4,0.1-0.9,0.1-1.4,0.1c-1.2,0-2.2-0.4-3-1.1c-0.8-0.8-1.2-1.7-1.2-2.9 c0-0.9,0.2-1.7,0.6-2.3c0.4-0.6,1-1.1,1.8-1.4c0.8-0.3,1.7-0.6,2.8-0.7c1.1-0.1,2.3-0.2,3.5-0.3v-0.1c0-0.7-0.3-1.2-0.9-1.5 c-0.6-0.3-1.4-0.4-2.5-0.4c-0.7,0-1.4,0.1-2.2,0.4c-0.8,0.2-1.3,0.4-1.6,0.5h-0.4v-3.1c0.4-0.1,1.1-0.2,2.1-0.4 c1-0.2,1.9-0.2,2.9-0.2c2.3,0,4,0.4,5,1.1c1,0.7,1.6,1.8,1.6,3.4v8.7h-4.1V148.7"></path> <path id="Fill-27" sketch:type="MSShapeGroup" class="st1" d="M336.7,150.1h-4.1v-6.3c0-0.5,0-1-0.1-1.5c-0.1-0.5-0.1-0.9-0.3-1.1 c-0.2-0.3-0.4-0.5-0.7-0.6c-0.3-0.1-0.7-0.2-1.2-0.2c-0.4,0-0.7,0.1-1.1,0.2c-0.4,0.1-0.8,0.3-1.2,0.6v9.1h-4.1v-12.8h4.1v1.4 c0.7-0.6,1.4-1,2.1-1.3s1.4-0.5,2.2-0.5c1.4,0,2.4,0.4,3.2,1.2c0.8,0.8,1.2,2,1.2,3.6V150.1"></path> <path id="Fill-28" sketch:type="MSShapeGroup" class="st1" d="M348,146.6v-6.3c-0.3-0.1-0.6-0.2-0.9-0.3c-0.3-0.1-0.6-0.1-0.9-0.1 c-1.1,0-1.9,0.3-2.4,1c-0.5,0.7-0.8,1.6-0.8,2.8c0,1.3,0.2,2.2,0.6,2.7c0.4,0.6,1.1,0.9,2.1,0.9c0.4,0,0.8-0.1,1.2-0.2 C347.3,147,347.7,146.8,348,146.6 M352.1,150.1H348v-1.3c-0.7,0.6-1.4,1-2,1.3c-0.6,0.3-1.3,0.4-2.1,0.4c-1.6,0-2.8-0.6-3.7-1.8 c-0.9-1.2-1.4-2.8-1.4-4.8c0-1.1,0.2-2,0.5-2.9c0.3-0.8,0.7-1.6,1.3-2.2c0.5-0.6,1.1-1,1.9-1.3c0.7-0.3,1.5-0.5,2.2-0.5 c0.8,0,1.4,0.1,1.9,0.2c0.5,0.2,1,0.4,1.5,0.6v-5.4h4.1V150.1"></path> <path id="Fill-2_00000142889968151935011940000000899099819350816183_" sketch:type="MSShapeGroup" class="st0" d="M335.8,142 c-21.5,0-38.9-17.4-38.9-38.9c0-21.5,17.4-38.9,38.9-38.9c21.5,0,38.9,17.4,38.9,38.9C374.7,124.5,357.3,142,335.8,142 M335.8,50.4 c-29.1,0-52.7,23.6-52.7,52.7s23.6,52.7,52.7,52.7s52.7-23.6,52.7-52.7S364.9,50.4,335.8,50.4"></path> <path id="Fill-3_00000173142993934839114710000005232839934945346235_" sketch:type="MSShapeGroup" class="st0" d="M335.8,139.5 c-10.1,0-19.2-4.1-25.8-10.7c-6.6-6.6-10.7-15.7-10.7-25.8c0-10.1,4.1-19.2,10.7-25.8c6.6-6.6,15.7-10.7,25.8-10.7 c10.1,0,19.2,4.1,25.8,10.7c6.6,6.6,10.7,15.7,10.7,25.8c0,10.1-4.1,19.2-10.7,25.8C354.9,135.4,345.8,139.5,335.8,139.5v5 c22.9,0,41.4-18.5,41.4-41.4c0-22.9-18.5-41.4-41.4-41.4c-22.9,0-41.4,18.5-41.4,41.4c0,22.9,18.5,41.4,41.4,41.4V139.5 M335.8,47.9 c-30.5,0-55.2,24.7-55.2,55.2c0,30.5,24.7,55.2,55.2,55.2c30.5,0,55.2-24.7,55.2-55.2C391,72.6,366.2,47.9,335.8,47.9v5 c13.9,0,26.4,5.6,35.5,14.7c9.1,9.1,14.7,21.6,14.7,35.5c0,13.9-5.6,26.4-14.7,35.5c-9.1,9.1-21.6,14.7-35.5,14.7 c-13.9,0-26.4-5.6-35.5-14.7c-9.1-9.1-14.7-21.6-14.7-35.5c0-13.9,5.6-26.4,14.7-35.5c9.1-9.1,21.6-14.7,35.5-14.7V47.9"></path> <path id="Fill-7_00000157301790351703266730000009491161109278488963_" sketch:type="MSShapeGroup" class="st0" d="M335.8,79.8 c12.8,0,23.3,10.4,23.3,23.3c0,12.8-10.4,23.3-23.3,23.3V79.8"></path> <path id="Fill-16_00000094611330097108444470000002748051345994002838_" sketch:type="MSShapeGroup" class="st0" d="M255.8,61.1 c2.8,1.2,5.3,2.7,7.5,4.5c4.9,4,8,9.3,9.4,15.8c9-26.2,33.8-45.1,63.1-45.1V12.7C301,12.7,270.9,32.4,255.8,61.1 M269.2,107.2 c-1.6,2.6-3.5,4.9-5.9,6.9c-4.2,3.5-9.5,5.9-16,7.2c8.5,41.1,44.8,72,88.5,72v-23.6C300.3,169.8,271.4,142.1,269.2,107.2"></path> <path id="Fill-17_00000133531288479733312640000002925385963903260308_" sketch:type="MSShapeGroup" class="st1" d="M13.7,59.3h77.8 v14.5L41.9,134H93v18H12.2v-14.5l49.7-60.2H13.7V59.3"></path> <path id="Fill-18_00000075866955044561976270000004083919813760568232_" sketch:type="MSShapeGroup" class="st1" d="M101.7,59.3 h77.8v14.5L129.8,134h51.1v18h-80.7v-14.5l49.7-60.2h-48.2V59.3"></path> <path id="Fill-19_00000121991608334609834460000010217939743762645132_" sketch:type="MSShapeGroup" class="st1" d="M216.6,76.4 v25.8h13.2c4.6,0,8.2-1.1,10.8-3.4c2.5-2.2,3.8-5.4,3.8-9.6c0-4.1-1.3-7.3-3.8-9.5c-2.5-2.2-6.1-3.3-10.8-3.3H216.6L216.6,76.4z M192.8,59.1h39.6c11.8,0,20.8,2.6,27.1,7.8c6.3,5.2,9.5,12.7,9.5,22.4c0,9.7-3.2,17.2-9.5,22.4c-6.3,5.2-15.4,7.8-27.1,7.8h-15.8 v32.2h-23.8V59.1L192.8,59.1z"></path> <path id="Fill-20_00000047782003135071527320000016386977734619373441_" sketch:type="MSShapeGroup" class="st1" d="M242.3,151.1 h-4.2l-7.2-11.6v11.6h-4v-16.9h5.2l6.2,9.7v-9.7h4V151.1"></path> <path id="Fill-21_00000066476133546736186810000015937720434704676752_" sketch:type="MSShapeGroup" class="st1" d="M254.2,142.1 c0-0.9-0.2-1.5-0.6-1.9c-0.4-0.4-1-0.6-1.9-0.6c-0.8,0-1.4,0.2-1.9,0.6c-0.5,0.4-0.8,1.1-0.9,2H254.2L254.2,142.1z M258.3,144.5 h-9.4c0.1,1,0.4,1.8,1.1,2.3c0.7,0.5,1.7,0.8,3.1,0.8c0.9,0,1.7-0.2,2.5-0.5c0.8-0.3,1.5-0.6,1.9-1h0.5v3.3 c-0.9,0.4-1.8,0.6-2.6,0.8c-0.8,0.2-1.7,0.2-2.7,0.2c-2.6,0-4.5-0.6-5.9-1.7c-1.4-1.2-2-2.8-2-4.9c0-2.1,0.6-3.8,1.9-5 c1.3-1.2,3.1-1.8,5.3-1.8c2.1,0,3.6,0.5,4.7,1.6c1,1.1,1.6,2.6,1.6,4.5V144.5L258.3,144.5z"></path> <path id="Fill-22_00000053543508798342169290000016227745505681041822_" sketch:type="MSShapeGroup" class="st1" d="M268.8,146.6 v-6.3c-0.3-0.1-0.6-0.2-0.9-0.3c-0.3-0.1-0.6-0.1-0.9-0.1c-1.1,0-1.9,0.3-2.4,1c-0.5,0.7-0.8,1.6-0.8,2.8c0,1.3,0.2,2.2,0.6,2.7 c0.4,0.6,1.1,0.9,2.1,0.9c0.4,0,0.8-0.1,1.2-0.2C268.1,147,268.5,146.8,268.8,146.6 M272.9,150.1h-4.1v-1.3c-0.7,0.6-1.4,1-2,1.3 c-0.6,0.3-1.3,0.4-2.1,0.4c-1.6,0-2.8-0.6-3.7-1.8c-0.9-1.2-1.4-2.8-1.4-4.8c0-1.1,0.2-2,0.5-2.9c0.3-0.8,0.7-1.6,1.3-2.2 c0.5-0.6,1.1-1,1.9-1.3c0.7-0.3,1.5-0.5,2.2-0.5c0.8,0,1.4,0.1,1.9,0.2c0.5,0.2,1,0.4,1.5,0.6v-5.4h4.1V150.1"></path> <path id="Fill-23_00000015327235463096305290000015013298598668700298_" sketch:type="MSShapeGroup" class="st1" d="M284.6,142.1 c0-0.9-0.2-1.5-0.6-1.9c-0.4-0.4-1-0.6-1.9-0.6c-0.8,0-1.4,0.2-1.9,0.6c-0.5,0.4-0.8,1.1-0.9,2H284.6L284.6,142.1z M288.6,144.5 h-9.4c0.1,1,0.4,1.8,1.1,2.3c0.7,0.5,1.7,0.8,3.1,0.8c0.9,0,1.7-0.2,2.5-0.5c0.8-0.3,1.5-0.6,1.9-1h0.5v3.3 c-0.9,0.4-1.8,0.6-2.6,0.8c-0.8,0.2-1.7,0.2-2.7,0.2c-2.6,0-4.5-0.6-5.9-1.7c-1.4-1.2-2-2.8-2-4.9c0-2.1,0.6-3.8,1.9-5 c1.3-1.2,3.1-1.8,5.3-1.8c2.1,0,3.6,0.5,4.7,1.6c1,1.1,1.6,2.6,1.6,4.5V144.5L288.6,144.5z"></path> <path id="Fill-24_00000005234779849256937820000009232961512259316623_" sketch:type="MSShapeGroup" class="st1" d="M300.1,141.2 h-0.4c-0.2-0.1-0.5-0.1-0.8-0.1c-0.4,0-0.7,0-1,0c-0.6,0-1.1,0-1.5,0.1c-0.4,0.1-0.9,0.2-1.4,0.4v8.5h-4.1v-12.8h4.1v1.9 c0.9-0.8,1.7-1.3,2.3-1.5c0.7-0.3,1.3-0.4,1.8-0.4c0.1,0,0.3,0,0.5,0c0.2,0,0.3,0,0.5,0V141.2"></path> <path id="Fill-25_00000124162260349760942620000011504649224034732966_" sketch:type="MSShapeGroup" class="st1" d="M301.7,132.4 h4.1v17.7h-4.1V132.4z"></path> <path id="Fill-26_00000134249447907904677860000001307392977393983386_" sketch:type="MSShapeGroup" class="st1" d="M316.7,146.7 v-2.6c-0.6,0-1.1,0.1-1.8,0.2c-0.6,0.1-1.1,0.2-1.5,0.3c-0.4,0.1-0.7,0.3-0.9,0.6c-0.2,0.2-0.3,0.6-0.3,1c0,0.3,0,0.5,0.1,0.6 c0,0.2,0.2,0.3,0.3,0.5c0.2,0.2,0.4,0.3,0.6,0.3s0.6,0.1,1.1,0.1c0.4,0,0.8-0.1,1.2-0.2C316,147.2,316.4,147,316.7,146.7 M316.7,148.7c-0.2,0.2-0.5,0.4-0.8,0.6c-0.3,0.2-0.6,0.4-0.9,0.6c-0.4,0.2-0.8,0.3-1.2,0.4c-0.4,0.1-0.9,0.1-1.4,0.1 c-1.2,0-2.2-0.4-3-1.1c-0.8-0.8-1.2-1.7-1.2-2.9c0-0.9,0.2-1.7,0.6-2.3c0.4-0.6,1-1.1,1.8-1.4c0.8-0.3,1.7-0.6,2.8-0.7 c1.1-0.1,2.3-0.2,3.5-0.3v-0.1c0-0.7-0.3-1.2-0.9-1.5c-0.6-0.3-1.4-0.4-2.5-0.4c-0.7,0-1.4,0.1-2.2,0.4c-0.8,0.2-1.3,0.4-1.6,0.5 h-0.4v-3.1c0.4-0.1,1.1-0.2,2.1-0.4c1-0.2,1.9-0.2,2.9-0.2c2.3,0,4,0.4,5,1.1c1,0.7,1.6,1.8,1.6,3.4v8.7h-4.1V148.7"></path> <path id="Fill-27_00000115511181966620071480000009334092102687789463_" sketch:type="MSShapeGroup" class="st1" d="M336.7,150.1 h-4.1v-6.3c0-0.5,0-1-0.1-1.5c-0.1-0.5-0.1-0.9-0.3-1.1c-0.2-0.3-0.4-0.5-0.7-0.6c-0.3-0.1-0.7-0.2-1.2-0.2c-0.4,0-0.7,0.1-1.1,0.2 c-0.4,0.1-0.8,0.3-1.2,0.6v9.1h-4.1v-12.8h4.1v1.4c0.7-0.6,1.4-1,2.1-1.3s1.4-0.5,2.2-0.5c1.4,0,2.4,0.4,3.2,1.2 c0.8,0.8,1.2,2,1.2,3.6V150.1"></path> <path id="Fill-28_00000008827193216877761770000018050010453436839609_" sketch:type="MSShapeGroup" class="st1" d="M348,146.6v-6.3 c-0.3-0.1-0.6-0.2-0.9-0.3c-0.3-0.1-0.6-0.1-0.9-0.1c-1.1,0-1.9,0.3-2.4,1c-0.5,0.7-0.8,1.6-0.8,2.8c0,1.3,0.2,2.2,0.6,2.7 c0.4,0.6,1.1,0.9,2.1,0.9c0.4,0,0.8-0.1,1.2-0.2C347.3,147,347.7,146.8,348,146.6 M352.1,150.1H348v-1.3c-0.7,0.6-1.4,1-2,1.3 c-0.6,0.3-1.3,0.4-2.1,0.4c-1.6,0-2.8-0.6-3.7-1.8c-0.9-1.2-1.4-2.8-1.4-4.8c0-1.1,0.2-2,0.5-2.9c0.3-0.8,0.7-1.6,1.3-2.2 c0.5-0.6,1.1-1,1.9-1.3c0.7-0.3,1.5-0.5,2.2-0.5c0.8,0,1.4,0.1,1.9,0.2c0.5,0.2,1,0.4,1.5,0.6v-5.4h4.1V150.1"></path> </svg> 